<svg xmlns="http://www.w3.org/2000/svg" viewBox="0 0 920 520" font-family="Helvetica, Arial, sans-serif">
<rect width="920" height="520" fill="white"/>
<text x="460.0" y="30" font-size="14.5" fill="#111" text-anchor="middle" font-weight="bold">Measurement setup: what sits where</text>
<text x="460.0" y="50" font-size="10.5" fill="#666" text-anchor="middle">VirtualBox, 3-node Kubernetes v1.37.0 (M4 Pro). Load and probes run on the host; the two paths differ only in the target address.</text>
<rect x="30" y="80" width="200" height="380" rx="8" fill="none" stroke="#bbb" stroke-dasharray="6,4"/>
<text x="130" y="100" font-size="11.5" fill="#444" text-anchor="middle" font-weight="bold">host (macOS)</text>
<rect x="50" y="130" width="160" height="60" rx="6" fill="#eef3f8" stroke="#2e6f9e" stroke-width="1.4"/>
<text x="130.0" y="156.0" font-size="11" fill="#222" text-anchor="middle">load generator</text>
<text x="130.0" y="172.0" font-size="11" fill="#222" text-anchor="middle">loadgen.py (100/200 rps)</text>
<rect x="50" y="330" width="160" height="60" rx="6" fill="#eef3f8" stroke="#2e6f9e" stroke-width="1.4"/>
<text x="130.0" y="356.0" font-size="11" fill="#222" text-anchor="middle">deterministic probes</text>
<text x="130.0" y="372.0" font-size="11" fill="#222" text-anchor="middle">rv_run_axes.sh and friends</text>
<rect x="270" y="80" width="620" height="380" rx="8" fill="none" stroke="#bbb" stroke-dasharray="6,4"/>
<text x="580" y="100" font-size="11.5" fill="#444" text-anchor="middle" font-weight="bold">aaif-benchmark cluster (Kubernetes v1.37.0, Calico)</text>
<rect x="300" y="120" width="200" height="48" rx="6" fill="#f3f0f8" stroke="#6a4b9e" stroke-width="1.4"/>
<text x="400.0" y="140.0" font-size="10.5" fill="#222" text-anchor="middle">agentgateway control plane</text>
<text x="400.0" y="156.0" font-size="10.5" fill="#222" text-anchor="middle">watches Gateway API + CRDs</text>
<rect x="300" y="215" width="200" height="60" rx="6" fill="#f3f0f8" stroke="#6a4b9e" stroke-width="1.4"/>
<text x="400.0" y="241.0" font-size="11" fill="#222" text-anchor="middle" font-weight="bold">agentgateway proxy v1.5.0</text>
<text x="400.0" y="257.0" font-size="11" fill="#222" text-anchor="middle">Rust data plane</text>
<rect x="300" y="330" width="200" height="66" rx="6" fill="#f3f0f8" stroke="#6a4b9e" stroke-width="1.4"/>
<text x="400.0" y="351.0" font-size="10.5" fill="#222" text-anchor="middle">AgentgatewayPolicy</text>
<text x="400.0" y="367.0" font-size="10.5" fill="#222" text-anchor="middle">mcpAuthorization (CEL)</text>
<text x="400.0" y="383.0" font-size="10.5" fill="#222" text-anchor="middle">mcpGuardrails</text>
<rect x="540" y="340" width="160" height="56" rx="6" fill="#fbf1f1" stroke="#c0504d" stroke-width="1.4"/>
<text x="620.0" y="364.0" font-size="10.5" fill="#222" text-anchor="middle">guardrail server</text>
<text x="620.0" y="380.0" font-size="10.5" fill="#222" text-anchor="middle">(own gRPC, k8s/guardrail)</text>
<rect x="660" y="205" width="200" height="60" rx="6" fill="#eef7ee" stroke="#3c8d5a" stroke-width="1.4"/>
<text x="760.0" y="231.0" font-size="11" fill="#222" text-anchor="middle" font-weight="bold">mcp-b (MCP server, SDK 2.0.0)</text>
<text x="760.0" y="247.0" font-size="11" fill="#222" text-anchor="middle">8 tools, 1 replica</text>
<rect x="660" y="120" width="200" height="48" rx="6" fill="#eef7ee" stroke="#3c8d5a" stroke-width="1.4"/>
<text x="760.0" y="140.0" font-size="10.5" fill="#222" text-anchor="middle">tap proxy</text>
<text x="760.0" y="156.0" font-size="10.5" fill="#222" text-anchor="middle">(records trace header and _meta)</text>
<line x1="400" y1="168" x2="400" y2="215" stroke="#6a4b9e" stroke-width="1.8" stroke-dasharray="4,3"/>
<line x1="400" y1="215" x2="404.6" y2="222.7" stroke="#6a4b9e" stroke-width="1.8"/>
<line x1="400" y1="215" x2="395.4" y2="222.7" stroke="#6a4b9e" stroke-width="1.8"/>
<line x1="400" y1="330" x2="400" y2="275" stroke="#6a4b9e" stroke-width="1.8" stroke-dasharray="4,3"/>
<line x1="400" y1="275" x2="395.4" y2="267.3" stroke="#6a4b9e" stroke-width="1.8"/>
<line x1="400" y1="275" x2="404.6" y2="267.3" stroke="#6a4b9e" stroke-width="1.8"/>
<line x1="210" y1="160" x2="300" y2="245" stroke="#2e6f9e" stroke-width="1.8"/>
<line x1="300" y1="245" x2="308.8" y2="246.9" stroke="#2e6f9e" stroke-width="1.8"/>
<line x1="300" y1="245" x2="302.4" y2="253.7" stroke="#2e6f9e" stroke-width="1.8"/>
<text x="250" y="195" font-size="10" fill="#2e6f9e" text-anchor="middle">gateway path (/b)</text>
<line x1="210" y1="160" x2="660" y2="225" stroke="#8a8f98" stroke-width="1.8" stroke-dasharray="6,4"/>
<line x1="660" y1="225" x2="668.3" y2="221.5" stroke="#8a8f98" stroke-width="1.8"/>
<line x1="660" y1="225" x2="667.0" y2="230.7" stroke="#8a8f98" stroke-width="1.8"/>
<text x="470" y="182" font-size="10" fill="#8a8f98" text-anchor="middle">direct path (LoadBalancer)</text>
<line x1="500" y1="245" x2="660" y2="235" stroke="#6a4b9e" stroke-width="1.8"/>
<line x1="660" y1="235" x2="667.4" y2="229.9" stroke="#6a4b9e" stroke-width="1.8"/>
<line x1="660" y1="235" x2="668.0" y2="239.1" stroke="#6a4b9e" stroke-width="1.8"/>
<line x1="500" y1="363" x2="540" y2="368" stroke="#c0504d" stroke-width="1.8" stroke-dasharray="4,3"/>
<line x1="540" y1="368" x2="548.2" y2="364.4" stroke="#c0504d" stroke-width="1.8"/>
<line x1="540" y1="368" x2="547.1" y2="373.6" stroke="#c0504d" stroke-width="1.8"/>
<text x="520" y="420" font-size="10" fill="#c0504d" text-anchor="middle">gRPC check round trip</text>
<line x1="210" y1="360" x2="300" y2="260" stroke="#2e6f9e" stroke-width="1.8"/>
<line x1="300" y1="260" x2="301.7" y2="251.2" stroke="#2e6f9e" stroke-width="1.8"/>
<line x1="300" y1="260" x2="308.6" y2="257.4" stroke="#2e6f9e" stroke-width="1.8"/>
<line x1="760" y1="205" x2="760" y2="168" stroke="#3c8d5a" stroke-width="1.8" stroke-dasharray="4,3"/>
<line x1="760" y1="168" x2="755.4" y2="160.3" stroke="#3c8d5a" stroke-width="1.8"/>
<line x1="760" y1="168" x2="764.6" y2="160.3" stroke="#3c8d5a" stroke-width="1.8"/>
<text x="460.0" y="498" font-size="10.5" fill="#555" text-anchor="middle">Direct and gateway paths alternate within each repetition; policies and the guardrail are toggled on the same backend.</text>
</svg>
